<?xml version="1.0" encoding="UTF-8"?>
<svg width="23px" height="20px" viewBox="0 0 23 20" version="1.1" xmlns="http://www.w3.org/2000/svg" xmlns:xlink="http://www.w3.org/1999/xlink">
    <!-- Generator: Sketch 56.3 (81716) - https://sketch.com -->
    <title>Group</title>
    <desc>Created with Sketch.</desc>
    <g id="Page-1" stroke="none" stroke-width="1" fill="none" fill-rule="evenodd">
        <g id="Group" transform="translate(-1.000000, -0.362200)" fill="#000000" fill-rule="nonzero">
            <path d="M8.5,0.3622 C8.4908692,0.362601023 8.48175111,0.363252301 8.472656,0.3641531 C8.45697838,0.364719185 8.44133607,0.366022727 8.425781,0.3680594 C8.413317,0.37019342 8.40093844,0.37279946 8.388672,0.3758719 C8.3808295,0.376988136 8.37301462,0.378290571 8.365234,0.3797781 C8.36065838,0.381015336 8.35610059,0.382317568 8.351562,0.3836844 C8.34301167,0.386708748 8.33454521,0.389965152 8.326172,0.39345 C8.3129059,0.398748711 8.29987294,0.404613458 8.287109,0.4110281 C8.2825232,0.412913349 8.2779657,0.414866698 8.273438,0.4168875 C8.26215372,0.422328869 8.2510779,0.428192373 8.240234,0.4344656 C8.23827186,0.435753932 8.23631881,0.437056065 8.234375,0.4383719 C8.2209266,0.44686012 8.20789079,0.455985057 8.195312,0.4657156 C8.18798938,0.471375062 8.18082529,0.47723672 8.173828,0.4832938 C8.16512878,0.490171712 8.15666076,0.497337108 8.148438,0.5047781 C8.14099676,0.513001079 8.13383113,0.521469329 8.126953,0.5301688 C8.12564382,0.531463665 8.1243418,0.532765752 8.123047,0.534075 C8.11835975,0.53983215 8.11380128,0.54569297 8.109375,0.5516531 C8.09969474,0.563595996 8.09057038,0.575978949 8.082031,0.5887625 C8.08071526,0.590706441 8.07941323,0.592659623 8.078125,0.5946219 C8.07409531,0.600398085 8.07018811,0.606258759 8.066406,0.6122 L1.0664062,12.698138 C0.977100108,12.8528413 0.977100108,13.0434347 1.0664062,13.198138 L5.0664062,20.125872 C5.17699084,20.317311 5.40016384,20.4134103 5.6152344,20.3622 L19.419922,20.3622 C19.5976602,20.3621047 19.7619899,20.2676707 19.851562,20.114153 L23.931641,13.114153 C23.9531395,13.0760959 23.9695554,13.0353842 23.980469,12.993059 C23.9825545,12.9865892 23.984508,12.9800775 23.986328,12.973528 C24.0070414,12.8820819 24.001627,12.7866543 23.970703,12.698138 C23.9688587,12.6922426 23.9669054,12.686382 23.964844,12.680559 C23.9612468,12.6706725 23.9573386,12.660902 23.953125,12.651262 C23.9524797,12.6499572 23.9518287,12.6486552 23.951172,12.647356 C23.9451357,12.6353802 23.9386201,12.623652 23.931641,12.6122 L23.919922,12.590716 C23.9186338,12.5887535 23.9173317,12.5868001 23.916016,12.584856 L16.949219,0.6122 C16.8601406,0.45793056 16.6957178,0.362699344 16.517578,0.3622 L8.523438,0.3622 L8.5,0.3622 Z M9.371094,1.3622 L16.228516,1.3622 L22.630859,12.3622 L15.787109,12.3622 L9.371094,1.3622 Z M8.5,1.8622 C10.481921,5.2946 11.815492,7.604478 11.902344,7.754778 L9.191406,12.461809 C9.08322234,12.5433351 9.01274339,12.6652641 8.996094,12.7997 L5.5,18.873919 L2.078125,12.948138 L8.5,1.8622 Z M12.503906,8.717669 L14.628906,12.3622 L10.404297,12.3622 L12.503906,8.717669 Z M9.828125,13.3622 L22.630859,13.3622 L19.132812,19.3622 L6.373047,19.3622 L9.828125,13.3622 Z" id="Shape"></path>
        </g>
    </g>
</svg>